<?xml version="1.0" encoding="UTF-8" standalone="no"?>
<!-- Created with Inkscape (http://www.inkscape.org/) -->

<svg
   xmlns:dc="http://purl.org/dc/elements/1.1/"
   xmlns:cc="http://creativecommons.org/ns#"
   xmlns:rdf="http://www.w3.org/1999/02/22-rdf-syntax-ns#"
   xmlns:svg="http://www.w3.org/2000/svg"
   xmlns="http://www.w3.org/2000/svg"
   xmlns:sodipodi="http://sodipodi.sourceforge.net/DTD/sodipodi-0.dtd"
   xmlns:inkscape="http://www.inkscape.org/namespaces/inkscape"
   version="1.1"
   id="svg2"
   xml:space="preserve"
   width="34"
   height="32"
   viewBox="0 0 34.000001 32.000001"
   sodipodi:docname="icon.svg"
   inkscape:version="0.92.4 5da689c313, 2019-01-14"><metadata
     id="metadata8"><rdf:RDF><cc:Work
         rdf:about=""><dc:format>image/svg+xml</dc:format><dc:type
           rdf:resource="http://purl.org/dc/dcmitype/StillImage" /><dc:title></dc:title></cc:Work></rdf:RDF></metadata><defs
     id="defs6" /><sodipodi:namedview
     pagecolor="#ffffff"
     bordercolor="#666666"
     borderopacity="1"
     objecttolerance="10"
     gridtolerance="10"
     guidetolerance="10"
     inkscape:pageopacity="0"
     inkscape:pageshadow="2"
     inkscape:window-width="1366"
     inkscape:window-height="744"
     id="namedview4"
     showgrid="false"
     inkscape:zoom="1.8101934"
     inkscape:cx="104.77961"
     inkscape:cy="-71.591849"
     inkscape:window-x="0"
     inkscape:window-y="24"
     inkscape:window-maximized="1"
     inkscape:current-layer="g10" /><g
     id="g10"
     inkscape:groupmode="layer"
     inkscape:label="0508_Alexander_logo_SA-02"
     transform="matrix(1.3333333,0,0,-1.3333333,0,32.000048)"><g
       id="g14"
       transform="matrix(0.15428084,0,0,0.11878425,14.771275,14.390877)"
       style="fill:#000000"><path
         d="M 0,0 -35.593,63.501 -61.006,18.309 h 27.823 l -2.414,4.796 H -52.794 L -35.601,53.725 -8.2,4.797 h -46.809 v -0.01 h -29.19 l 40.75,72.506 -2.638,4.701 -0.168,0.096 -46.147,-82.101 h 46.194 V 0 Z"
         style="fill:#000000;fill-opacity:1;fill-rule:nonzero;stroke:none"
         id="path16"
         inkscape:connector-curvature="0" /></g><g
       id="g18"
       transform="matrix(0.15428084,0,0,0.11878425,26.015402,14.390877)"
       style="fill:#000000"><path
         d="m 0,0 h -52.139 v 82.09 h 4.942 V 4.941 H 0 Z"
         style="fill:#000000;fill-opacity:1;fill-rule:nonzero;stroke:none"
         id="path20"
         inkscape:connector-curvature="0" /></g><g
       id="g22"
       transform="matrix(0.15428084,0,0,0.11878425,10.160114,0.14372823)"
       style="fill:#000000"><path
         d="M 0,0 H -62.514 V 88.975 H 0 V 83.618 H -57.158 V 5.356 H 0 Z"
         style="fill:#000000;fill-opacity:1;fill-rule:nonzero;stroke:none"
         id="path24"
         inkscape:connector-curvature="0" /></g><path
       d="M 9.2357245,6.3203673 H 3.3716643 v 0.6362078 h 5.8640602 z"
       style="fill:#000000;fill-opacity:1;fill-rule:nonzero;stroke:none;stroke-width:0.13537405"
       id="path26"
       inkscape:connector-curvature="0" /><path
       d="M 9.2357245,3.8991877 H 3.3716643 v 0.6360896 h 5.8640602 z"
       style="fill:#000000;fill-opacity:1;fill-rule:nonzero;stroke:none;stroke-width:0.13537405"
       id="path28"
       inkscape:connector-curvature="0" /><g
       id="g30"
       transform="matrix(0.15428084,0,0,0.11878425,26.015402,10.713673)"
       style="fill:#000000"><path
         d="m 0,0 -25.521,-35.85 -3.269,4.6 L -6.561,0 Z"
         style="fill:#000000;fill-opacity:1;fill-rule:nonzero;stroke:none"
         id="path32"
         inkscape:connector-curvature="0" /></g><g
       id="g34"
       transform="matrix(0.15428084,0,0,0.11878425,19.677529,3.8538833)"
       style="fill:#000000"><path
         d="m 0,0 -22.23,-31.25 h -6.56 L -3.28,4.61 Z"
         style="fill:#000000;fill-opacity:1;fill-rule:nonzero;stroke:none"
         id="path36"
         inkscape:connector-curvature="0" /></g><g
       id="g38"
       transform="matrix(0.15428084,0,0,0.11878425,26.015248,0.14233879)"
       style="fill:#000000"><path
         d="M 0,0 H -6.588 L -69.87,88.992 h 6.588 z"
         style="fill:#000000;fill-opacity:1;fill-rule:nonzero;stroke:none"
         id="path40"
         inkscape:connector-curvature="0" /></g></g></svg>